<?xml version="1.0" encoding="utf-8"?>
<!-- Generator: Adobe Illustrator 23.0.6, SVG Export Plug-In . SVG Version: 6.00 Build 0)  -->
<svg version="1.1" id="Layer_1" xmlns="http://www.w3.org/2000/svg" xmlns:xlink="http://www.w3.org/1999/xlink" x="0px" y="0px"
	 viewBox="0 0 24 24" style="enable-background:new 0 0 24 24;" xml:space="preserve">
<style type="text/css">
	.st0{fill:#71BC42;}
	.st1{fill:none;}
</style>
<rect x="-82.7" y="9.2" class="st0" width="3" height="9.8"/>
<rect x="-77.1" y="5" class="st0" width="2.8" height="14"/>
<rect x="-71.5" y="13" class="st0" width="2.8" height="6"/>
<path class="st1" d="M-87.7,0h24v24h-24V0z"/>
<path class="st1" d="M-59.3,0h24v24h-24V0z"/>
<path class="st0" d="M-47.3,2c-5.5,0-10,4.5-10,10s4.5,10,10,10c5.5,0,10-4.5,10-10S-41.8,2-47.3,2z M-40.4,8h-3
	c-0.3-1.3-0.8-2.4-1.4-3.6C-42.9,5.1-41.4,6.3-40.4,8z M-47.3,4c0.8,1.2,1.5,2.5,1.9,4h-3.8C-48.8,6.6-48.1,5.2-47.3,4z M-55.1,14
	c-0.2-0.6-0.3-1.3-0.3-2s0.1-1.4,0.3-2h3.4c-0.1,0.7-0.1,1.3-0.1,2s0.1,1.3,0.1,2H-55.1z M-54.2,16h3c0.3,1.3,0.8,2.5,1.4,3.6
	C-51.7,18.9-53.3,17.7-54.2,16z M-51.3,8h-3c1-1.7,2.5-2.9,4.3-3.6C-50.5,5.6-51,6.8-51.3,8z M-47.3,20c-0.8-1.2-1.5-2.5-1.9-4h3.8
	C-45.8,17.4-46.5,18.8-47.3,20z M-45,14h-4.7c-0.1-0.7-0.2-1.3-0.2-2s0.1-1.4,0.2-2h4.7c0.1,0.6,0.2,1.3,0.2,2S-44.9,13.3-45,14z
	 M-44.7,19.6c0.6-1.1,1.1-2.3,1.4-3.6h3C-41.4,17.6-42.9,18.9-44.7,19.6z M-43,14c0.1-0.7,0.1-1.3,0.1-2s-0.1-1.3-0.1-2h3.4
	c0.2,0.6,0.3,1.3,0.3,2s-0.1,1.4-0.3,2H-43z"/>
<path class="st1" d="M-29.6,0h24v24h-24V0z"/>
<path class="st0" d="M-13.1,12c1.4,0,2.5-1.1,2.5-2.5S-11.7,7-13.1,7s-2.5,1.1-2.5,2.5S-14.5,12-13.1,12z M-20.6,11c1.7,0,3-1.3,3-3
	s-1.3-3-3-3s-3,1.3-3,3S-22.3,11-20.6,11z M-13.1,14c-1.8,0-5.5,0.9-5.5,2.8V19h11v-2.3C-7.6,14.9-11.3,14-13.1,14z M-20.6,13
	c-2.3,0-7,1.2-7,3.5V19h7v-2.3c0-0.9,0.3-2.3,2.4-3.5C-19.1,13.1-20,13-20.6,13z"/>
<g>
	<g>
		<g>
			<g>
				<path class="st0" d="M18,7.9h-3V6.4c0-0.4-0.2-0.8-0.4-1.1c-0.3-0.3-0.6-0.4-1.1-0.4h-3C9.7,4.9,9,5.6,9,6.4v1.5H6
					c-0.8,0-1.5,0.7-1.5,1.5v8.3c0,0.8,0.7,1.5,1.5,1.5h12c0.8,0,1.5-0.7,1.5-1.5V9.4C19.5,8.6,18.8,7.9,18,7.9z M10.5,6.4h3v1.5h-3
					V6.4z M11.3,16.5l-0.8-0.8l2.3-2.3l-2.3-2.3l0.8-0.8l3,3L11.3,16.5z"/>
			</g>
		</g>
	</g>
</g>
<image style="overflow:visible;" width="1124" height="310" xlink:href="39EAB1D1.jpg"  transform="matrix(1 0 0 1 -601.2979 -402.9787)">
</image>
</svg>
